<?xml version="1.0" standalone="no"?>
<!DOCTYPE svg PUBLIC "-//W3C//DTD SVG 20010904//EN"
 "http://www.w3.org/TR/2001/REC-SVG-20010904/DTD/svg10.dtd">
<svg version="1.0" xmlns="http://www.w3.org/2000/svg"
 width="261.000000pt" height="172.000000pt" viewBox="0 0 261.000000 172.000000"
 preserveAspectRatio="xMidYMid meet">
<metadata>
Created by potrace 1.15, written by Peter Selinger 2001-2017
</metadata>
<g transform="translate(0.000000,172.000000) scale(0.100000,-0.100000)"
fill="#000000" stroke="none">
<path d="M1022 1628 c-5 -7 -46 -71 -90 -143 -43 -71 -139 -224 -212 -340
-166 -263 -328 -520 -438 -695 -47 -74 -114 -179 -149 -234 -35 -54 -62 -105
-59 -112 5 -12 26 -14 102 -12 l97 3 112 180 c62 99 232 371 378 605 147 233
269 429 272 435 3 6 7 7 10 0 3 -5 40 -66 83 -135 43 -69 100 -161 127 -204
l48 -79 20 24 c25 32 163 247 212 332 41 70 49 77 59 51 3 -8 130 -214 283
-457 152 -243 320 -512 373 -597 l97 -155 97 -3 c76 -2 97 0 102 12 3 7 -24
58 -59 112 -35 55 -102 160 -149 234 -46 74 -140 223 -208 330 -303 481 -360
572 -445 709 -50 80 -97 147 -105 148 -9 2 -37 -34 -73 -95 -114 -193 -188
-307 -197 -307 -9 0 -81 112 -197 307 -58 96 -71 109 -91 86z"/>
<path d="M1531 782 c-11 -22 -35 -59 -55 -84 -19 -25 -65 -96 -102 -157 l-68
-112 -19 33 c-11 18 -65 102 -121 186 -98 148 -125 175 -140 136 -8 -21 -246
-403 -338 -544 -96 -146 -96 -145 26 -145 l99 0 94 150 c51 83 105 171 120
198 14 26 29 47 32 47 3 0 27 -35 52 -78 182 -306 199 -329 216 -284 4 9 53
91 109 182 57 91 107 171 112 179 6 11 23 -10 65 -80 31 -52 88 -143 125 -204
l68 -110 100 0 c122 0 122 -1 26 145 -114 173 -352 559 -352 570 0 25 -31 7
-49 -28z"/>
</g>
</svg>
